<?xml version="1.0" encoding="UTF-8" standalone="no"?>
<!DOCTYPE svg PUBLIC "-//W3C//DTD SVG 1.1//EN"
 "http://www.w3.org/Graphics/SVG/1.1/DTD/svg11.dtd">
<!-- Generated by graphviz version 2.44.0 (0)
 -->
<!-- Title: vtkResliceImageViewer Pages: 1 -->
<svg width="2612pt" height="771pt"
 viewBox="0.00 0.00 2612.00 771.00" xmlns="http://www.w3.org/2000/svg" xmlns:xlink="http://www.w3.org/1999/xlink">
<g id="graph0" class="graph" transform="scale(1 1) rotate(0) translate(4 767)">
<title>vtkResliceImageViewer</title>
<polygon fill="white" stroke="transparent" points="-4,4 -4,-767 2608,-767 2608,4 -4,4"/>
<!-- Node1 -->
<g id="node1" class="node">
<title>Node1</title>
<g id="a_node1"><a xlink:title="Display an image along with a reslice cursor.">
<polygon fill="#bfbfbf" stroke="black" points="2174,-238.5 2174,-257.5 2293,-257.5 2293,-238.5 2174,-238.5"/>
<text text-anchor="middle" x="2233.5" y="-245.5" font-family="Helvetica" font-size="10.00">vtkResliceImageViewer</text>
</a>
</g>
</g>
<!-- Node130 -->
<g id="node23" class="node">
<title>Node130</title>
<g id="a_node23"><a xlink:href="classvtkResliceImageViewerMeasurements.html" target="_top" xlink:title="Manage measurements on a resliced image.">
<polygon fill="white" stroke="black" points="2421,-204.5 2421,-223.5 2604,-223.5 2604,-204.5 2421,-204.5"/>
<text text-anchor="middle" x="2512.5" y="-211.5" font-family="Helvetica" font-size="10.00">vtkResliceImageViewerMeasurements</text>
</a>
</g>
</g>
<!-- Node1&#45;&gt;Node130 -->
<g id="edge38" class="edge">
<title>Node1&#45;&gt;Node130</title>
<path fill="none" stroke="#9a32cd" stroke-dasharray="5,2" d="M2303.35,-239.55C2342.97,-234.69 2392.89,-228.56 2433.9,-223.52"/>
<polygon fill="#9a32cd" stroke="#9a32cd" points="2302.74,-236.1 2293.24,-240.79 2303.6,-243.05 2302.74,-236.1"/>
<text text-anchor="middle" x="2357" y="-240" font-family="Helvetica" font-size="10.00"> ResliceImageViewer</text>
</g>
<!-- Node2 -->
<g id="node2" class="node">
<title>Node2</title>
<g id="a_node2"><a xlink:href="classvtkImageViewer2.html" target="_top" xlink:title="Display a 2D image.">
<polygon fill="white" stroke="black" points="1481.5,-425.5 1481.5,-444.5 1573.5,-444.5 1573.5,-425.5 1481.5,-425.5"/>
<text text-anchor="middle" x="1527.5" y="-432.5" font-family="Helvetica" font-size="10.00">vtkImageViewer2</text>
</a>
</g>
</g>
<!-- Node2&#45;&gt;Node1 -->
<g id="edge1" class="edge">
<title>Node2&#45;&gt;Node1</title>
<path fill="none" stroke="midnightblue" d="M1574.09,-422.89C1704.82,-388.16 2079.1,-288.75 2196.69,-257.51"/>
<polygon fill="midnightblue" stroke="midnightblue" points="1573.15,-419.52 1564.38,-425.47 1574.94,-426.28 1573.15,-419.52"/>
</g>
<!-- Node3 -->
<g id="node3" class="node">
<title>Node3</title>
<g id="a_node3"><a xlink:href="classvtkObject.html" target="_top" xlink:title="abstract base class for most VTK objects">
<polygon fill="white" stroke="black" points="164,-312.5 164,-331.5 223,-331.5 223,-312.5 164,-312.5"/>
<text text-anchor="middle" x="193.5" y="-319.5" font-family="Helvetica" font-size="10.00">vtkObject</text>
</a>
</g>
</g>
<!-- Node3&#45;&gt;Node2 -->
<g id="edge2" class="edge">
<title>Node3&#45;&gt;Node2</title>
<path fill="none" stroke="midnightblue" d="M212.91,-338.51C252.99,-372.69 352.46,-448 450.5,-448 450.5,-448 450.5,-448 1240,-448 1325.39,-448 1424.95,-442.17 1481.37,-438.31"/>
<polygon fill="midnightblue" stroke="midnightblue" points="215.13,-335.8 205.28,-331.89 210.54,-341.09 215.13,-335.8"/>
</g>
<!-- Node27 -->
<g id="node8" class="node">
<title>Node27</title>
<g id="a_node8"><a xlink:href="classvtkImageProperty.html" target="_top" xlink:title="image display properties">
<polygon fill="white" stroke="red" points="404,-476.5 404,-495.5 499,-495.5 499,-476.5 404,-476.5"/>
<text text-anchor="middle" x="451.5" y="-483.5" font-family="Helvetica" font-size="10.00">vtkImageProperty</text>
</a>
</g>
</g>
<!-- Node3&#45;&gt;Node27 -->
<g id="edge8" class="edge">
<title>Node3&#45;&gt;Node27</title>
<path fill="none" stroke="midnightblue" d="M194.78,-341.76C196.37,-372.73 204.35,-432.23 241,-462 286.61,-499.04 357.38,-499.07 403.83,-493.94"/>
<polygon fill="midnightblue" stroke="midnightblue" points="198.27,-341.63 194.44,-331.75 191.28,-341.86 198.27,-341.63"/>
</g>
<!-- Node39 -->
<g id="node10" class="node">
<title>Node39</title>
<g id="a_node10"><a xlink:href="classvtkWindow.html" target="_top" xlink:title="window superclass for vtkRenderWindow">
<polygon fill="white" stroke="black" points="553.5,-312.5 553.5,-331.5 618.5,-331.5 618.5,-312.5 553.5,-312.5"/>
<text text-anchor="middle" x="586" y="-319.5" font-family="Helvetica" font-size="10.00">vtkWindow</text>
</a>
</g>
</g>
<!-- Node3&#45;&gt;Node39 -->
<g id="edge12" class="edge">
<title>Node3&#45;&gt;Node39</title>
<path fill="none" stroke="midnightblue" d="M233.48,-322C310.81,-322 482.28,-322 553.27,-322"/>
<polygon fill="midnightblue" stroke="midnightblue" points="233.21,-318.5 223.21,-322 233.21,-325.5 233.21,-318.5"/>
</g>
<!-- Node17 -->
<g id="node13" class="node">
<title>Node17</title>
<g id="a_node13"><a xlink:href="classvtkCollection.html" target="_top" xlink:title="create and manipulate ordered lists of objects">
<polygon fill="white" stroke="red" points="414.5,-607.5 414.5,-626.5 488.5,-626.5 488.5,-607.5 414.5,-607.5"/>
<text text-anchor="middle" x="451.5" y="-614.5" font-family="Helvetica" font-size="10.00">vtkCollection</text>
</a>
</g>
</g>
<!-- Node3&#45;&gt;Node17 -->
<g id="edge16" class="edge">
<title>Node3&#45;&gt;Node17</title>
<path fill="none" stroke="midnightblue" d="M195.06,-342.07C197.05,-398.03 205.73,-553.96 241,-588 287.1,-632.5 367.7,-629.81 414.34,-623.58"/>
<polygon fill="midnightblue" stroke="midnightblue" points="198.55,-341.6 194.73,-331.72 191.55,-341.83 198.55,-341.6"/>
</g>
<!-- Node50 -->
<g id="node14" class="node">
<title>Node50</title>
<g id="a_node14"><a xlink:href="classvtkRenderWindowInteractor.html" target="_top" xlink:title="platform&#45;independent render window interaction including picking and frame rate control.">
<polygon fill="white" stroke="red" points="1170.5,-275.5 1170.5,-294.5 1307.5,-294.5 1307.5,-275.5 1170.5,-275.5"/>
<text text-anchor="middle" x="1239" y="-282.5" font-family="Helvetica" font-size="10.00">vtkRenderWindowInteractor</text>
</a>
</g>
</g>
<!-- Node3&#45;&gt;Node50 -->
<g id="edge19" class="edge">
<title>Node3&#45;&gt;Node50</title>
<path fill="none" stroke="midnightblue" d="M222.27,-307.98C268.42,-286.03 364.37,-246 450.5,-246 450.5,-246 450.5,-246 989.5,-246 1065.27,-246 1152.48,-263.91 1200.82,-275.46"/>
<polygon fill="midnightblue" stroke="midnightblue" points="220.68,-304.87 213.2,-312.37 223.73,-311.17 220.68,-304.87"/>
</g>
<!-- Node52 -->
<g id="node15" class="node">
<title>Node52</title>
<g id="a_node15"><a xlink:href="classvtkInteractorObserver.html" target="_top" xlink:title="an abstract superclass for classes observing events invoked by vtkRenderWindowInteractor">
<polygon fill="white" stroke="red" points="1472,-229.5 1472,-248.5 1583,-248.5 1583,-229.5 1472,-229.5"/>
<text text-anchor="middle" x="1527.5" y="-236.5" font-family="Helvetica" font-size="10.00">vtkInteractorObserver</text>
</a>
</g>
</g>
<!-- Node3&#45;&gt;Node52 -->
<g id="edge21" class="edge">
<title>Node3&#45;&gt;Node52</title>
<path fill="none" stroke="midnightblue" d="M202.44,-302.85C210.01,-287.01 222.94,-265.22 241,-253 319.89,-199.64 355.27,-208 450.5,-208 450.5,-208 450.5,-208 863,-208 1125.88,-208 1191.73,-214.03 1454,-232 1459.8,-232.4 1465.86,-232.88 1471.9,-233.4"/>
<polygon fill="midnightblue" stroke="midnightblue" points="199.13,-301.67 198.24,-312.23 205.52,-304.53 199.13,-301.67"/>
</g>
<!-- Node3&#45;&gt;Node130 -->
<g id="edge37" class="edge">
<title>Node3&#45;&gt;Node130</title>
<path fill="none" stroke="midnightblue" d="M195.84,-302.35C199.62,-252.65 212.07,-123.77 241,-94 307.64,-25.42 354.88,-45 450.5,-45 450.5,-45 450.5,-45 863,-45 1098.3,-45 1155.2,0 1390.5,0 1390.5,0 1390.5,0 2234.5,0 2370.02,0 2479.63,-162.38 2505.63,-204.25"/>
<polygon fill="midnightblue" stroke="midnightblue" points="192.34,-302.21 195.11,-312.44 199.32,-302.72 192.34,-302.21"/>
</g>
<!-- Node132 -->
<g id="node25" class="node">
<title>Node132</title>
<g id="a_node25"><a xlink:href="classvtkPointPlacer.html" target="_top" xlink:title="Abstract interface to translate 2D display positions to world coordinates.">
<polygon fill="white" stroke="black" points="546,-562.5 546,-581.5 626,-581.5 626,-562.5 546,-562.5"/>
<text text-anchor="middle" x="586" y="-569.5" font-family="Helvetica" font-size="10.00">vtkPointPlacer</text>
</a>
</g>
</g>
<!-- Node3&#45;&gt;Node132 -->
<g id="edge43" class="edge">
<title>Node3&#45;&gt;Node132</title>
<path fill="none" stroke="midnightblue" d="M194.56,-342.17C195.73,-377.06 202.95,-449.16 241,-493 318.22,-581.96 473.47,-581.86 545.99,-576.29"/>
<polygon fill="midnightblue" stroke="midnightblue" points="198.05,-341.78 194.36,-331.85 191.06,-341.92 198.05,-341.78"/>
</g>
<!-- Node140 -->
<g id="node31" class="node">
<title>Node140</title>
<g id="a_node31"><a xlink:href="classvtkWidgetEventTranslator.html" target="_top" xlink:title="map VTK events into widget events">
<polygon fill="white" stroke="red" points="387.5,-132.5 387.5,-151.5 515.5,-151.5 515.5,-132.5 387.5,-132.5"/>
<text text-anchor="middle" x="451.5" y="-139.5" font-family="Helvetica" font-size="10.00">vtkWidgetEventTranslator</text>
</a>
</g>
</g>
<!-- Node3&#45;&gt;Node140 -->
<g id="edge54" class="edge">
<title>Node3&#45;&gt;Node140</title>
<path fill="none" stroke="midnightblue" d="M217.46,-305.38C219.58,-303.1 221.49,-300.63 223,-298 246.35,-257.32 209.04,-228.34 241,-194 278.02,-154.22 340.31,-142.82 387.37,-140.41"/>
<polygon fill="midnightblue" stroke="midnightblue" points="214.81,-303.06 209.76,-312.37 219.52,-308.24 214.81,-303.06"/>
</g>
<!-- Node142 -->
<g id="node32" class="node">
<title>Node142</title>
<g id="a_node32"><a xlink:href="classvtkWidgetCallbackMapper.html" target="_top" xlink:title="map widget events into callbacks">
<polygon fill="white" stroke="black" points="665,-74.5 665,-93.5 796,-93.5 796,-74.5 665,-74.5"/>
<text text-anchor="middle" x="730.5" y="-81.5" font-family="Helvetica" font-size="10.00">vtkWidgetCallbackMapper</text>
</a>
</g>
</g>
<!-- Node3&#45;&gt;Node142 -->
<g id="edge56" class="edge">
<title>Node3&#45;&gt;Node142</title>
<path fill="none" stroke="midnightblue" d="M196.76,-302.19C202.07,-259.48 216.71,-160.81 241,-139 301.96,-84.26 546.26,-80.69 664.6,-82.33"/>
<polygon fill="midnightblue" stroke="midnightblue" points="193.28,-301.86 195.57,-312.21 200.23,-302.69 193.28,-301.86"/>
</g>
<!-- Node4 -->
<g id="node4" class="node">
<title>Node4</title>
<g id="a_node4"><a xlink:href="classvtkObjectBase.html" target="_top" xlink:title="abstract base class for most VTK objects">
<polygon fill="white" stroke="red" points="0,-241.5 0,-260.5 81,-260.5 81,-241.5 0,-241.5"/>
<text text-anchor="middle" x="40.5" y="-248.5" font-family="Helvetica" font-size="10.00">vtkObjectBase</text>
</a>
</g>
</g>
<!-- Node4&#45;&gt;Node3 -->
<g id="edge3" class="edge">
<title>Node4&#45;&gt;Node3</title>
<path fill="none" stroke="midnightblue" d="M91.29,-250.17C109.46,-251.74 129.56,-255.81 146,-265 165.84,-276.09 180.57,-299.32 187.71,-312.44"/>
<polygon fill="midnightblue" stroke="midnightblue" points="91.35,-246.67 81.15,-249.52 90.91,-253.65 91.35,-246.67"/>
</g>
<!-- Node6 -->
<g id="node5" class="node">
<title>Node6</title>
<g id="a_node5"><a xlink:href="classvtkTimeStamp.html" target="_top" xlink:title="record modification and/or execution time">
<polygon fill="white" stroke="black" points="0.5,-371.5 0.5,-390.5 80.5,-390.5 80.5,-371.5 0.5,-371.5"/>
<text text-anchor="middle" x="40.5" y="-378.5" font-family="Helvetica" font-size="10.00">vtkTimeStamp</text>
</a>
</g>
</g>
<!-- Node6&#45;&gt;Node3 -->
<g id="edge4" class="edge">
<title>Node6&#45;&gt;Node3</title>
<path fill="none" stroke="#9a32cd" stroke-dasharray="5,2" d="M75.53,-367.7C103.61,-356.73 142.8,-341.42 167.91,-331.61"/>
<polygon fill="#9a32cd" stroke="#9a32cd" points="74.14,-364.49 66.1,-371.39 76.68,-371.01 74.14,-364.49"/>
<text text-anchor="middle" x="122.5" y="-361" font-family="Helvetica" font-size="10.00"> MTime</text>
</g>
<!-- Node7 -->
<g id="node6" class="node">
<title>Node7</title>
<g id="a_node6"><a xlink:href="classvtkImageActor.html" target="_top" xlink:title="draw an image in a rendered 3D scene">
<polygon fill="white" stroke="black" points="948.5,-572.5 948.5,-591.5 1028.5,-591.5 1028.5,-572.5 948.5,-572.5"/>
<text text-anchor="middle" x="988.5" y="-579.5" font-family="Helvetica" font-size="10.00">vtkImageActor</text>
</a>
</g>
</g>
<!-- Node6&#45;&gt;Node7 -->
<g id="edge9" class="edge">
<title>Node6&#45;&gt;Node7</title>
<path fill="none" stroke="#9a32cd" stroke-dasharray="5,2" d="M50.45,-399.58C74.06,-446.3 143.04,-568.68 241,-621 364.77,-687.11 812.11,-613.7 948.05,-589.31"/>
<polygon fill="#9a32cd" stroke="#9a32cd" points="53.56,-397.98 45.99,-390.57 47.29,-401.09 53.56,-397.98"/>
<text text-anchor="middle" x="451.5" y="-650" font-family="Helvetica" font-size="10.00"> TranslucentComputationTime</text>
</g>
<!-- Node56 -->
<g id="node17" class="node">
<title>Node56</title>
<g id="a_node17"><a xlink:href="classvtkRenderer.html" target="_top" xlink:title="abstract specification for renderers">
<polygon fill="white" stroke="red" points="1204.5,-390.5 1204.5,-409.5 1273.5,-409.5 1273.5,-390.5 1204.5,-390.5"/>
<text text-anchor="middle" x="1239" y="-397.5" font-family="Helvetica" font-size="10.00">vtkRenderer</text>
</a>
</g>
</g>
<!-- Node6&#45;&gt;Node56 -->
<g id="edge26" class="edge">
<title>Node6&#45;&gt;Node56</title>
<path fill="none" stroke="#9a32cd" stroke-dasharray="5,2" d="M82.43,-393.21C112.58,-401.14 154.73,-410 192.5,-410 192.5,-410 192.5,-410 989.5,-410 1066.36,-410 1156.47,-405.17 1204.25,-402.22"/>
<polygon fill="#9a32cd" stroke="#9a32cd" points="83.26,-389.81 72.69,-390.58 81.43,-396.57 83.26,-389.81"/>
<text text-anchor="middle" x="586" y="-413" font-family="Helvetica" font-size="10.00"> RenderTime</text>
</g>
<!-- Node135 -->
<g id="node30" class="node">
<title>Node135</title>
<g id="a_node30"><a xlink:href="classvtkWidgetRepresentation.html" target="_top" xlink:title="abstract class defines interface between the widget and widget representation classes">
<polygon fill="white" stroke="red" points="241,-3.5 241,-22.5 367,-22.5 367,-3.5 241,-3.5"/>
<text text-anchor="middle" x="304" y="-10.5" font-family="Helvetica" font-size="10.00">vtkWidgetRepresentation</text>
</a>
</g>
</g>
<!-- Node6&#45;&gt;Node135 -->
<g id="edge51" class="edge">
<title>Node6&#45;&gt;Node135</title>
<path fill="none" stroke="#9a32cd" stroke-dasharray="5,2" d="M49.87,-362.28C79.6,-296.59 181.44,-77.96 241,-31 245.31,-27.6 250.25,-24.84 255.4,-22.6"/>
<polygon fill="#9a32cd" stroke="#9a32cd" points="46.65,-360.91 45.74,-371.46 53.04,-363.78 46.65,-360.91"/>
<text text-anchor="middle" x="122.5" y="-257" font-family="Helvetica" font-size="10.00"> BuildTime</text>
</g>
<!-- Node7&#45;&gt;Node2 -->
<g id="edge5" class="edge">
<title>Node7&#45;&gt;Node2</title>
<path fill="none" stroke="#9a32cd" stroke-dasharray="5,2" d="M1038.64,-584.1C1143.46,-587.72 1385.08,-591.18 1454,-550 1495.13,-525.43 1516.62,-467.51 1523.75,-444.59"/>
<polygon fill="#9a32cd" stroke="#9a32cd" points="1038.75,-580.6 1028.63,-583.74 1038.5,-587.6 1038.75,-580.6"/>
<text text-anchor="middle" x="1239" y="-589" font-family="Helvetica" font-size="10.00"> ImageActor</text>
</g>
<!-- Node8 -->
<g id="node7" class="node">
<title>Node8</title>
<g id="a_node7"><a xlink:href="classvtkImageSlice.html" target="_top" xlink:title="represents an image in a 3D scene">
<polygon fill="white" stroke="red" points="691,-514.5 691,-533.5 770,-533.5 770,-514.5 691,-514.5"/>
<text text-anchor="middle" x="730.5" y="-521.5" font-family="Helvetica" font-size="10.00">vtkImageSlice</text>
</a>
</g>
</g>
<!-- Node8&#45;&gt;Node7 -->
<g id="edge6" class="edge">
<title>Node8&#45;&gt;Node7</title>
<path fill="none" stroke="midnightblue" d="M780.15,-535.29C789.13,-537.65 798.39,-540.25 807,-543 815.18,-545.61 816.76,-547.61 825,-550 866.42,-562.03 915.09,-570.95 948.29,-576.27"/>
<polygon fill="midnightblue" stroke="midnightblue" points="780.72,-531.83 770.17,-532.75 779,-538.61 780.72,-531.83"/>
</g>
<!-- Node27&#45;&gt;Node8 -->
<g id="edge7" class="edge">
<title>Node27&#45;&gt;Node8</title>
<path fill="none" stroke="#9a32cd" stroke-dasharray="5,2" d="M509.21,-496.66C518.16,-498.2 527.32,-499.71 536,-501 589.54,-508.98 651.74,-515.97 690.86,-520.09"/>
<polygon fill="#9a32cd" stroke="#9a32cd" points="509.69,-493.19 499.23,-494.9 508.47,-500.08 509.69,-493.19"/>
<text text-anchor="middle" x="586" y="-516" font-family="Helvetica" font-size="10.00"> Property</text>
</g>
<!-- Node100 -->
<g id="node21" class="node">
<title>Node100</title>
<g id="a_node21"><a xlink:href="classvtkInteractorStyleImage.html" target="_top" xlink:title="interactive manipulation of the camera specialized for images">
<polygon fill="white" stroke="black" points="670,-476.5 670,-495.5 791,-495.5 791,-476.5 670,-476.5"/>
<text text-anchor="middle" x="730.5" y="-483.5" font-family="Helvetica" font-size="10.00">vtkInteractorStyleImage</text>
</a>
</g>
</g>
<!-- Node27&#45;&gt;Node100 -->
<g id="edge34" class="edge">
<title>Node27&#45;&gt;Node100</title>
<path fill="none" stroke="#9a32cd" stroke-dasharray="5,2" d="M509.44,-486C556.22,-486 622.29,-486 669.81,-486"/>
<polygon fill="#9a32cd" stroke="#9a32cd" points="509.18,-482.5 499.18,-486 509.18,-489.5 509.18,-482.5"/>
<text text-anchor="middle" x="586" y="-489" font-family="Helvetica" font-size="10.00"> CurrentImageProperty</text>
</g>
<!-- Node46 -->
<g id="node9" class="node">
<title>Node46</title>
<g id="a_node9"><a xlink:href="classvtkRenderWindow.html" target="_top" xlink:title="create a window for renderers to draw into">
<polygon fill="white" stroke="black" points="940.5,-323.5 940.5,-342.5 1036.5,-342.5 1036.5,-323.5 940.5,-323.5"/>
<text text-anchor="middle" x="988.5" y="-330.5" font-family="Helvetica" font-size="10.00">vtkRenderWindow</text>
</a>
</g>
</g>
<!-- Node46&#45;&gt;Node2 -->
<g id="edge10" class="edge">
<title>Node46&#45;&gt;Node2</title>
<path fill="none" stroke="#9a32cd" stroke-dasharray="5,2" d="M1046.7,-336.87C1111.31,-341.87 1219.4,-352.12 1311,-370 1319.15,-371.59 1320.95,-372.95 1329,-375 1384.27,-389.08 1399.79,-386.28 1454,-404 1472.35,-410 1492.48,-418.79 1506.86,-425.48"/>
<polygon fill="#9a32cd" stroke="#9a32cd" points="1046.94,-333.38 1036.71,-336.11 1046.41,-340.36 1046.94,-333.38"/>
<text text-anchor="middle" x="1239" y="-373" font-family="Helvetica" font-size="10.00"> RenderWindow</text>
</g>
<!-- Node46&#45;&gt;Node46 -->
<g id="edge17" class="edge">
<title>Node46&#45;&gt;Node46</title>
<path fill="none" stroke="#9a32cd" stroke-dasharray="5,2" d="M965.43,-352.03C966.69,-357.13 974.38,-361 988.5,-361 1010.54,-361 1016.91,-351.57 1007.61,-342.76"/>
<polygon fill="#9a32cd" stroke="#9a32cd" points="968.69,-353.33 969.39,-342.76 962.25,-350.58 968.69,-353.33"/>
<text text-anchor="middle" x="988.5" y="-364" font-family="Helvetica" font-size="10.00"> SharedRenderWindow</text>
</g>
<!-- Node46&#45;&gt;Node50 -->
<g id="edge27" class="edge">
<title>Node46&#45;&gt;Node50</title>
<path fill="none" stroke="#9a32cd" stroke-dasharray="5,2" d="M1012.18,-317.84C1029.41,-307.23 1054.15,-293.95 1078,-288 1107.65,-280.6 1141.36,-279.01 1170.17,-279.59"/>
<polygon fill="#9a32cd" stroke="#9a32cd" points="1009.99,-315.07 1003.42,-323.38 1013.74,-320.99 1009.99,-315.07"/>
<text text-anchor="middle" x="1113.5" y="-291" font-family="Helvetica" font-size="10.00"> RenderWindow</text>
</g>
<!-- Node46&#45;&gt;Node56 -->
<g id="edge25" class="edge">
<title>Node46&#45;&gt;Node56</title>
<path fill="none" stroke="#9a32cd" stroke-dasharray="5,2" d="M1026.71,-345.96C1042.44,-351.24 1061.02,-357.21 1078,-362 1121.28,-374.21 1171.87,-385.78 1204.39,-392.87"/>
<polygon fill="#9a32cd" stroke="#9a32cd" points="1027.42,-342.5 1016.83,-342.61 1025.17,-349.13 1027.42,-342.5"/>
<text text-anchor="middle" x="1113.5" y="-382" font-family="Helvetica" font-size="10.00"> RenderWindow</text>
</g>
<!-- Node39&#45;&gt;Node46 -->
<g id="edge11" class="edge">
<title>Node39&#45;&gt;Node46</title>
<path fill="none" stroke="midnightblue" d="M628.8,-323.15C703.96,-325.21 861.4,-329.54 940.3,-331.7"/>
<polygon fill="midnightblue" stroke="midnightblue" points="628.85,-319.65 618.76,-322.87 628.66,-326.65 628.85,-319.65"/>
</g>
<!-- Node47 -->
<g id="node11" class="node">
<title>Node47</title>
<g id="a_node11"><a xlink:href="classvtkSmartPointer.html" target="_top" xlink:title=" ">
<polygon fill="white" stroke="red" points="654.5,-351 654.5,-381 806.5,-381 806.5,-351 654.5,-351"/>
<text text-anchor="start" x="662.5" y="-369" font-family="Helvetica" font-size="10.00">vtkSmartPointer&lt; vtkUnsigned</text>
<text text-anchor="middle" x="730.5" y="-358" font-family="Helvetica" font-size="10.00">CharArray &gt;</text>
</a>
</g>
</g>
<!-- Node47&#45;&gt;Node46 -->
<g id="edge13" class="edge">
<title>Node47&#45;&gt;Node46</title>
<path fill="none" stroke="#9a32cd" stroke-dasharray="5,2" d="M816.62,-355.03C857.79,-349.72 905.66,-343.55 940.24,-339.09"/>
<polygon fill="#9a32cd" stroke="#9a32cd" points="816.05,-351.57 806.58,-356.32 816.94,-358.51 816.05,-351.57"/>
<text text-anchor="middle" x="862" y="-367" font-family="Helvetica" font-size="10.00"> ResultFrame</text>
<text text-anchor="middle" x="862" y="-356" font-family="Helvetica" font-size="10.00">StereoBuffer</text>
</g>
<!-- Node49 -->
<g id="node12" class="node">
<title>Node49</title>
<g id="a_node12"><a xlink:href="classvtkRendererCollection.html" target="_top" xlink:title="an ordered list of renderers">
<polygon fill="white" stroke="black" points="674,-552.5 674,-571.5 787,-571.5 787,-552.5 674,-552.5"/>
<text text-anchor="middle" x="730.5" y="-559.5" font-family="Helvetica" font-size="10.00">vtkRendererCollection</text>
</a>
</g>
</g>
<!-- Node49&#45;&gt;Node46 -->
<g id="edge14" class="edge">
<title>Node49&#45;&gt;Node46</title>
<path fill="none" stroke="#9a32cd" stroke-dasharray="5,2" d="M795.71,-548.86C799.64,-547.14 803.44,-545.2 807,-543 895.33,-488.4 963.1,-376.44 982.13,-342.78"/>
<polygon fill="#9a32cd" stroke="#9a32cd" points="794.41,-545.61 786.35,-552.48 796.94,-552.14 794.41,-545.61"/>
<text text-anchor="middle" x="862" y="-533" font-family="Helvetica" font-size="10.00"> Renderers</text>
</g>
<!-- Node17&#45;&gt;Node49 -->
<g id="edge15" class="edge">
<title>Node17&#45;&gt;Node49</title>
<path fill="none" stroke="midnightblue" d="M498.82,-608.92C535.98,-602.31 589.43,-592.54 636,-583 653.28,-579.46 672.28,-575.25 688.61,-571.53"/>
<polygon fill="midnightblue" stroke="midnightblue" points="498.02,-605.5 488.79,-610.69 499.25,-612.4 498.02,-605.5"/>
</g>
<!-- Node17&#45;&gt;Node130 -->
<g id="edge39" class="edge">
<title>Node17&#45;&gt;Node130</title>
<path fill="none" stroke="#9a32cd" stroke-dasharray="5,2" d="M494.67,-629.97C502.58,-632.91 510.66,-636.28 518,-640 583.33,-673.08 585.11,-708.19 654,-733 740.92,-764.3 768.61,-752 861,-752 861,-752 861,-752 2234.5,-752 2481.91,-752 2508.54,-296.71 2511.22,-223.8"/>
<polygon fill="#9a32cd" stroke="#9a32cd" points="495.77,-626.65 485.18,-626.6 493.43,-633.24 495.77,-626.65"/>
<text text-anchor="middle" x="1527.5" y="-755" font-family="Helvetica" font-size="10.00"> WidgetCollection</text>
</g>
<!-- Node41 -->
<g id="node27" class="node">
<title>Node41</title>
<g id="a_node27"><a xlink:href="classvtkPlaneCollection.html" target="_top" xlink:title="maintain a list of planes">
<polygon fill="white" stroke="black" points="681.5,-666.5 681.5,-685.5 779.5,-685.5 779.5,-666.5 681.5,-666.5"/>
<text text-anchor="middle" x="730.5" y="-673.5" font-family="Helvetica" font-size="10.00">vtkPlaneCollection</text>
</a>
</g>
</g>
<!-- Node17&#45;&gt;Node41 -->
<g id="edge46" class="edge">
<title>Node17&#45;&gt;Node41</title>
<path fill="none" stroke="midnightblue" d="M498.71,-617.95C536.23,-619.63 590.23,-624.13 636,-636 663.34,-643.09 693.03,-656.94 711.45,-666.34"/>
<polygon fill="midnightblue" stroke="midnightblue" points="498.72,-614.45 488.59,-617.55 498.44,-621.44 498.72,-614.45"/>
</g>
<!-- Node50&#45;&gt;Node2 -->
<g id="edge31" class="edge">
<title>Node50&#45;&gt;Node2</title>
<path fill="none" stroke="#9a32cd" stroke-dasharray="5,2" d="M1260.06,-300.77C1277.36,-313.56 1303.51,-331.06 1329,-341 1381.63,-361.52 1403.86,-337.99 1454,-364 1483.09,-379.09 1508.18,-409.73 1519.73,-425.36"/>
<polygon fill="#9a32cd" stroke="#9a32cd" points="1261.96,-297.81 1251.87,-294.57 1257.73,-303.39 1261.96,-297.81"/>
<text text-anchor="middle" x="1391.5" y="-367" font-family="Helvetica" font-size="10.00"> Interactor</text>
</g>
<!-- Node50&#45;&gt;Node46 -->
<g id="edge18" class="edge">
<title>Node50&#45;&gt;Node46</title>
<path fill="none" stroke="#9a32cd" stroke-dasharray="5,2" d="M1178.72,-296.45C1135.2,-304.86 1076.87,-316.12 1036.53,-323.92"/>
<polygon fill="#9a32cd" stroke="#9a32cd" points="1179.45,-299.87 1188.61,-294.54 1178.12,-293 1179.45,-299.87"/>
<text text-anchor="middle" x="1113.5" y="-317" font-family="Helvetica" font-size="10.00"> Interactor</text>
</g>
<!-- Node50&#45;&gt;Node52 -->
<g id="edge22" class="edge">
<title>Node50&#45;&gt;Node52</title>
<path fill="none" stroke="#9a32cd" stroke-dasharray="5,2" d="M1267.92,-270.89C1285.08,-262.94 1307.78,-253.69 1329,-249 1376.44,-238.52 1431.77,-236.57 1471.78,-236.92"/>
<polygon fill="#9a32cd" stroke="#9a32cd" points="1266.03,-267.92 1258.51,-275.38 1269.04,-274.24 1266.03,-267.92"/>
<text text-anchor="middle" x="1391.5" y="-252" font-family="Helvetica" font-size="10.00"> Interactor</text>
</g>
<!-- Node52&#45;&gt;Node50 -->
<g id="edge20" class="edge">
<title>Node52&#45;&gt;Node50</title>
<path fill="none" stroke="#9a32cd" stroke-dasharray="5,2" d="M1490.87,-251.86C1479.25,-255.64 1466.19,-259.44 1454,-262 1405.55,-272.18 1349.92,-277.99 1307.53,-281.22"/>
<polygon fill="#9a32cd" stroke="#9a32cd" points="1492.29,-255.08 1500.66,-248.58 1490.07,-248.44 1492.29,-255.08"/>
<text text-anchor="middle" x="1391.5" y="-282" font-family="Helvetica" font-size="10.00"> InteractorStyle</text>
</g>
<!-- Node134 -->
<g id="node29" class="node">
<title>Node134</title>
<g id="a_node29"><a xlink:href="classvtkAbstractWidget.html" target="_top" xlink:title="define the API for widget / widget representation">
<polygon fill="white" stroke="black" points="1673,-83.5 1673,-102.5 1771,-102.5 1771,-83.5 1673,-83.5"/>
<text text-anchor="middle" x="1722" y="-90.5" font-family="Helvetica" font-size="10.00">vtkAbstractWidget</text>
</a>
</g>
</g>
<!-- Node52&#45;&gt;Node134 -->
<g id="edge49" class="edge">
<title>Node52&#45;&gt;Node134</title>
<path fill="none" stroke="midnightblue" d="M1549.1,-223.38C1588.9,-193.19 1675.32,-127.64 1708.07,-102.81"/>
<polygon fill="midnightblue" stroke="midnightblue" points="1546.98,-220.59 1541.13,-229.42 1551.21,-226.17 1546.98,-220.59"/>
</g>
<!-- Node54 -->
<g id="node16" class="node">
<title>Node54</title>
<g id="a_node16"><a xlink:href="classvtkCallbackCommand.html" target="_top" xlink:title="supports function callbacks">
<polygon fill="white" stroke="red" points="1182.5,-162.5 1182.5,-181.5 1295.5,-181.5 1295.5,-162.5 1182.5,-162.5"/>
<text text-anchor="middle" x="1239" y="-169.5" font-family="Helvetica" font-size="10.00">vtkCallbackCommand</text>
</a>
</g>
</g>
<!-- Node54&#45;&gt;Node52 -->
<g id="edge23" class="edge">
<title>Node54&#45;&gt;Node52</title>
<path fill="none" stroke="#9a32cd" stroke-dasharray="5,2" d="M1305.68,-164.39C1349.13,-161.83 1406.61,-163.25 1454,-181 1481.17,-191.18 1505.98,-215.72 1518.31,-229.39"/>
<polygon fill="#9a32cd" stroke="#9a32cd" points="1305.25,-160.91 1295.51,-165.08 1305.72,-167.9 1305.25,-160.91"/>
<text text-anchor="middle" x="1391.5" y="-195" font-family="Helvetica" font-size="10.00"> EventCallbackCommand</text>
<text text-anchor="middle" x="1391.5" y="-184" font-family="Helvetica" font-size="10.00">KeyPressCallbackCommand</text>
</g>
<!-- Node54&#45;&gt;Node130 -->
<g id="edge40" class="edge">
<title>Node54&#45;&gt;Node130</title>
<path fill="none" stroke="#9a32cd" stroke-dasharray="5,2" d="M1306.03,-162.95C1313.76,-162.15 1321.55,-161.47 1329,-161 1461.18,-152.64 1494.55,-160 1627,-160 1627,-160 1627,-160 2234.5,-160 2326.37,-160 2432.26,-188.97 2482.35,-204.47"/>
<polygon fill="#9a32cd" stroke="#9a32cd" points="1305.49,-159.49 1295.93,-164.05 1306.25,-166.44 1305.49,-159.49"/>
<text text-anchor="middle" x="1844.5" y="-163" font-family="Helvetica" font-size="10.00"> EventCallbackCommand</text>
</g>
<!-- Node56&#45;&gt;Node2 -->
<g id="edge35" class="edge">
<title>Node56&#45;&gt;Node2</title>
<path fill="none" stroke="#9a32cd" stroke-dasharray="5,2" d="M1284,-403.99C1327.32,-408.09 1395.34,-415 1454,-423 1462.85,-424.21 1472.28,-425.65 1481.31,-427.11"/>
<polygon fill="#9a32cd" stroke="#9a32cd" points="1284.08,-400.48 1273.8,-403.03 1283.43,-407.45 1284.08,-400.48"/>
<text text-anchor="middle" x="1391.5" y="-426" font-family="Helvetica" font-size="10.00"> Renderer</text>
</g>
<!-- Node56&#45;&gt;Node52 -->
<g id="edge24" class="edge">
<title>Node56&#45;&gt;Node52</title>
<path fill="none" stroke="#9a32cd" stroke-dasharray="5,2" d="M1282.99,-389.35C1293.28,-385.07 1303.45,-379.15 1311,-371 1328.76,-351.82 1309.23,-332.1 1329,-315 1371.61,-278.15 1402.28,-316.34 1454,-294 1479.53,-282.97 1504.22,-261.11 1517.16,-248.53"/>
<polygon fill="#9a32cd" stroke="#9a32cd" points="1281.75,-386.07 1273.59,-392.83 1284.19,-392.64 1281.75,-386.07"/>
<text text-anchor="middle" x="1391.5" y="-329" font-family="Helvetica" font-size="10.00"> CurrentRenderer</text>
<text text-anchor="middle" x="1391.5" y="-318" font-family="Helvetica" font-size="10.00">DefaultRenderer</text>
</g>
<!-- Node96 -->
<g id="node18" class="node">
<title>Node96</title>
<g id="a_node18"><a xlink:href="classvtkNew.html" target="_top" xlink:title=" ">
<polygon fill="white" stroke="red" points="654,-274.5 654,-293.5 807,-293.5 807,-274.5 654,-274.5"/>
<text text-anchor="middle" x="730.5" y="-281.5" font-family="Helvetica" font-size="10.00">vtkNew&lt; vtkRenderTimerLog &gt;</text>
</a>
</g>
</g>
<!-- Node96&#45;&gt;Node46 -->
<g id="edge28" class="edge">
<title>Node96&#45;&gt;Node46</title>
<path fill="none" stroke="#9a32cd" stroke-dasharray="5,2" d="M817.31,-285.56C843.77,-287.4 872.82,-290.82 899,-297 924.02,-302.91 951.19,-314.86 968.73,-323.37"/>
<polygon fill="#9a32cd" stroke="#9a32cd" points="817.51,-282.07 807.31,-284.93 817.07,-289.06 817.51,-282.07"/>
<text text-anchor="middle" x="862" y="-300" font-family="Helvetica" font-size="10.00"> RenderTimer</text>
</g>
<!-- Node97 -->
<g id="node19" class="node">
<title>Node97</title>
<g id="a_node19"><a xlink:href="classvtkImageMapToWindowLevelColors.html" target="_top" xlink:title="Map an image through a lookup table and/or a window/level.">
<polygon fill="white" stroke="black" points="1167,-477 1167,-507 1311,-507 1311,-477 1167,-477"/>
<text text-anchor="start" x="1175" y="-495" font-family="Helvetica" font-size="10.00">vtkImageMapToWindowLevel</text>
<text text-anchor="middle" x="1239" y="-484" font-family="Helvetica" font-size="10.00">Colors</text>
</a>
</g>
</g>
<!-- Node97&#45;&gt;Node2 -->
<g id="edge29" class="edge">
<title>Node97&#45;&gt;Node2</title>
<path fill="none" stroke="#9a32cd" stroke-dasharray="5,2" d="M1321.16,-484.82C1361.5,-480.2 1410.75,-472.95 1454,-462 1471.45,-457.58 1490.49,-450.39 1504.68,-444.54"/>
<polygon fill="#9a32cd" stroke="#9a32cd" points="1320.66,-481.36 1311.11,-485.94 1321.43,-488.31 1320.66,-481.36"/>
<text text-anchor="middle" x="1391.5" y="-486" font-family="Helvetica" font-size="10.00"> WindowLevel</text>
</g>
<!-- Node98 -->
<g id="node20" class="node">
<title>Node98</title>
<g id="a_node20"><a xlink:href="classvtkImageMapToColors.html" target="_top" xlink:title="map the input image through a lookup table">
<polygon fill="white" stroke="red" points="930.5,-482.5 930.5,-501.5 1046.5,-501.5 1046.5,-482.5 930.5,-482.5"/>
<text text-anchor="middle" x="988.5" y="-489.5" font-family="Helvetica" font-size="10.00">vtkImageMapToColors</text>
</a>
</g>
</g>
<!-- Node98&#45;&gt;Node97 -->
<g id="edge30" class="edge">
<title>Node98&#45;&gt;Node97</title>
<path fill="none" stroke="midnightblue" d="M1056.81,-492C1090.79,-492 1132.03,-492 1166.57,-492"/>
<polygon fill="midnightblue" stroke="midnightblue" points="1056.51,-488.5 1046.51,-492 1056.51,-495.5 1056.51,-488.5"/>
</g>
<!-- Node100&#45;&gt;Node2 -->
<g id="edge32" class="edge">
<title>Node100&#45;&gt;Node2</title>
<path fill="none" stroke="#9a32cd" stroke-dasharray="5,2" d="M793.87,-498.94C798.42,-500.71 802.85,-502.72 807,-505 816.65,-510.29 814.77,-517.93 825,-522 855.56,-534.15 866.11,-522.2 899,-522 1082.12,-520.89 1128.35,-530.19 1311,-517 1374.95,-512.38 1395.56,-524.36 1454,-498 1481.66,-485.52 1506.64,-458.94 1518.76,-444.62"/>
<polygon fill="#9a32cd" stroke="#9a32cd" points="794.99,-495.63 784.4,-495.62 792.68,-502.23 794.99,-495.63"/>
<text text-anchor="middle" x="1113.5" y="-527" font-family="Helvetica" font-size="10.00"> InteractorStyle</text>
</g>
<!-- Node101 -->
<g id="node22" class="node">
<title>Node101</title>
<g id="a_node22"><a xlink:href="classvtkInteractorStyleTrackballCamera.html" target="_top" xlink:title="interactive manipulation of the camera">
<polygon fill="white" stroke="red" points="385,-515 385,-545 518,-545 518,-515 385,-515"/>
<text text-anchor="start" x="393" y="-533" font-family="Helvetica" font-size="10.00">vtkInteractorStyleTrackball</text>
<text text-anchor="middle" x="451.5" y="-522" font-family="Helvetica" font-size="10.00">Camera</text>
</a>
</g>
</g>
<!-- Node101&#45;&gt;Node100 -->
<g id="edge33" class="edge">
<title>Node101&#45;&gt;Node100</title>
<path fill="none" stroke="midnightblue" d="M528.08,-518C572.73,-510.9 628.48,-502.05 669.99,-495.45"/>
<polygon fill="midnightblue" stroke="midnightblue" points="527.47,-514.55 518.15,-519.57 528.57,-521.46 527.47,-514.55"/>
</g>
<!-- Node130&#45;&gt;Node1 -->
<g id="edge36" class="edge">
<title>Node130&#45;&gt;Node1</title>
<path fill="none" stroke="#9a32cd" stroke-dasharray="5,2" d="M2410.56,-206.65C2378.45,-206.4 2342.98,-208.31 2311,-215 2289.34,-219.53 2266.24,-230.43 2251.17,-238.47"/>
<polygon fill="#9a32cd" stroke="#9a32cd" points="2410.81,-210.15 2420.86,-206.8 2410.92,-203.15 2410.81,-210.15"/>
<text text-anchor="middle" x="2357" y="-218" font-family="Helvetica" font-size="10.00"> Measurements</text>
</g>
<!-- Node131 -->
<g id="node24" class="node">
<title>Node131</title>
<g id="a_node24"><a xlink:href="classvtkBoundedPlanePointPlacer.html" target="_top" xlink:title="a placer that constrains a handle to a finite plane">
<polygon fill="white" stroke="black" points="917,-647.5 917,-666.5 1060,-666.5 1060,-647.5 917,-647.5"/>
<text text-anchor="middle" x="988.5" y="-654.5" font-family="Helvetica" font-size="10.00">vtkBoundedPlanePointPlacer</text>
</a>
</g>
</g>
<!-- Node131&#45;&gt;Node1 -->
<g id="edge41" class="edge">
<title>Node131&#45;&gt;Node1</title>
<path fill="none" stroke="#9a32cd" stroke-dasharray="5,2" d="M1055.1,-645.96C1105.08,-638.5 1175.68,-630 1238,-630 1238,-630 1238,-630 1980.5,-630 2164.43,-630 2221.78,-317.62 2231.07,-257.83"/>
<polygon fill="#9a32cd" stroke="#9a32cd" points="1054.44,-642.52 1045.07,-647.48 1055.49,-649.44 1054.44,-642.52"/>
<text text-anchor="middle" x="1628" y="-633" font-family="Helvetica" font-size="10.00"> PointPlacer</text>
</g>
<!-- Node132&#45;&gt;Node131 -->
<g id="edge42" class="edge">
<title>Node132&#45;&gt;Node131</title>
<path fill="none" stroke="midnightblue" d="M636.23,-582.45C714.64,-599.09 866.72,-631.37 942.43,-647.43"/>
<polygon fill="midnightblue" stroke="midnightblue" points="636.64,-578.96 626.13,-580.3 635.19,-585.8 636.64,-578.96"/>
</g>
<!-- Node42 -->
<g id="node26" class="node">
<title>Node42</title>
<g id="a_node26"><a xlink:href="classvtkPlane.html" target="_top" xlink:title="perform various plane computations">
<polygon fill="white" stroke="red" points="703,-704.5 703,-723.5 758,-723.5 758,-704.5 703,-704.5"/>
<text text-anchor="middle" x="730.5" y="-711.5" font-family="Helvetica" font-size="10.00">vtkPlane</text>
</a>
</g>
</g>
<!-- Node42&#45;&gt;Node131 -->
<g id="edge44" class="edge">
<title>Node42&#45;&gt;Node131</title>
<path fill="none" stroke="#9a32cd" stroke-dasharray="5,2" d="M768.05,-708.35C802.13,-702.81 854.29,-693.67 899,-683 918.78,-678.28 940.72,-671.84 957.8,-666.55"/>
<polygon fill="#9a32cd" stroke="#9a32cd" points="767.4,-704.91 758.08,-709.95 768.5,-711.82 767.4,-704.91"/>
<text text-anchor="middle" x="862" y="-701" font-family="Helvetica" font-size="10.00"> ObliquePlane</text>
</g>
<!-- Node41&#45;&gt;Node131 -->
<g id="edge45" class="edge">
<title>Node41&#45;&gt;Node131</title>
<path fill="none" stroke="#9a32cd" stroke-dasharray="5,2" d="M789.96,-671.66C827.67,-668.86 876.94,-665.21 916.83,-662.24"/>
<polygon fill="#9a32cd" stroke="#9a32cd" points="789.37,-668.2 779.65,-672.43 789.88,-675.18 789.37,-668.2"/>
<text text-anchor="middle" x="862" y="-671" font-family="Helvetica" font-size="10.00"> BoundingPlanes</text>
</g>
<!-- Node133 -->
<g id="node28" class="node">
<title>Node133</title>
<g id="a_node28"><a xlink:href="classvtkResliceCursorWidget.html" target="_top" xlink:title="represent a reslice cursor">
<polygon fill="white" stroke="black" points="1918,-213.5 1918,-232.5 2041,-232.5 2041,-213.5 1918,-213.5"/>
<text text-anchor="middle" x="1979.5" y="-220.5" font-family="Helvetica" font-size="10.00">vtkResliceCursorWidget</text>
</a>
</g>
</g>
<!-- Node133&#45;&gt;Node1 -->
<g id="edge47" class="edge">
<title>Node133&#45;&gt;Node1</title>
<path fill="none" stroke="#9a32cd" stroke-dasharray="5,2" d="M2051.31,-230.02C2089.9,-233.85 2137.1,-238.54 2173.65,-242.16"/>
<polygon fill="#9a32cd" stroke="#9a32cd" points="2051.48,-226.52 2041.18,-229.02 2050.79,-233.49 2051.48,-226.52"/>
<text text-anchor="middle" x="2107.5" y="-242" font-family="Helvetica" font-size="10.00"> ResliceCursorWidget</text>
</g>
<!-- Node134&#45;&gt;Node133 -->
<g id="edge48" class="edge">
<title>Node134&#45;&gt;Node133</title>
<path fill="none" stroke="midnightblue" d="M1781.23,-99.24C1817.41,-105.12 1863.77,-116.43 1900,-138 1933.14,-157.73 1960.73,-195.68 1972.45,-213.42"/>
<polygon fill="midnightblue" stroke="midnightblue" points="1781.72,-95.78 1771.31,-97.72 1780.66,-102.7 1781.72,-95.78"/>
</g>
<!-- Node134&#45;&gt;Node134 -->
<g id="edge52" class="edge">
<title>Node134&#45;&gt;Node134</title>
<path fill="none" stroke="#9a32cd" stroke-dasharray="5,2" d="M1704.59,-112.4C1705.76,-117.31 1711.56,-121 1722,-121 1738.71,-121 1743.54,-111.57 1736.49,-102.76"/>
<polygon fill="#9a32cd" stroke="#9a32cd" points="1707.97,-113.34 1707.51,-102.76 1701.27,-111.31 1707.97,-113.34"/>
<text text-anchor="middle" x="1722" y="-124" font-family="Helvetica" font-size="10.00"> Parent</text>
</g>
<!-- Node135&#45;&gt;Node134 -->
<g id="edge50" class="edge">
<title>Node135&#45;&gt;Node134</title>
<path fill="none" stroke="#9a32cd" stroke-dasharray="5,2" d="M377.17,-13.03C572.2,-13.81 1125.82,-20.58 1583,-70 1613.06,-73.25 1646.53,-78.78 1672.97,-83.6"/>
<polygon fill="#9a32cd" stroke="#9a32cd" points="377.07,-9.53 367.05,-13 377.04,-16.53 377.07,-9.53"/>
<text text-anchor="middle" x="988.5" y="-34" font-family="Helvetica" font-size="10.00"> WidgetRep</text>
</g>
<!-- Node140&#45;&gt;Node134 -->
<g id="edge53" class="edge">
<title>Node140&#45;&gt;Node134</title>
<path fill="none" stroke="#9a32cd" stroke-dasharray="5,2" d="M525.55,-141.71C713.28,-140.48 1227.85,-134.11 1655,-101 1660.75,-100.55 1666.78,-99.98 1672.75,-99.34"/>
<polygon fill="#9a32cd" stroke="#9a32cd" points="525.5,-138.21 515.52,-141.77 525.54,-145.21 525.5,-138.21"/>
<text text-anchor="middle" x="1113.5" y="-134" font-family="Helvetica" font-size="10.00"> EventTranslator</text>
</g>
<!-- Node140&#45;&gt;Node142 -->
<g id="edge57" class="edge">
<title>Node140&#45;&gt;Node142</title>
<path fill="none" stroke="#9a32cd" stroke-dasharray="5,2" d="M491.07,-129.38C505.11,-125.07 521.18,-120.47 536,-117 578.47,-107.06 626.85,-98.81 664.6,-93.04"/>
<polygon fill="#9a32cd" stroke="#9a32cd" points="489.75,-126.13 481.25,-132.45 491.84,-132.81 489.75,-126.13"/>
<text text-anchor="middle" x="586" y="-120" font-family="Helvetica" font-size="10.00"> EventTranslator</text>
</g>
<!-- Node142&#45;&gt;Node134 -->
<g id="edge55" class="edge">
<title>Node142&#45;&gt;Node134</title>
<path fill="none" stroke="#9a32cd" stroke-dasharray="5,2" d="M806.49,-84C857.52,-84 926.59,-84 987.5,-84 987.5,-84 987.5,-84 1528.5,-84 1577.68,-84 1633.85,-86.97 1672.77,-89.49"/>
<polygon fill="#9a32cd" stroke="#9a32cd" points="806.21,-80.5 796.21,-84 806.21,-87.5 806.21,-80.5"/>
<text text-anchor="middle" x="1239" y="-87" font-family="Helvetica" font-size="10.00"> CallbackMapper</text>
</g>
</g>
</svg>
